<?xml version="1.0" encoding="UTF-8" standalone="no"?>
<!-- Created with Inkscape (http://www.inkscape.org/) -->

<svg
   xmlns:dc="http://purl.org/dc/elements/1.1/"
   xmlns:cc="http://creativecommons.org/ns#"
   xmlns:rdf="http://www.w3.org/1999/02/22-rdf-syntax-ns#"
   xmlns:svg="http://www.w3.org/2000/svg"
   xmlns="http://www.w3.org/2000/svg"
   xmlns:xlink="http://www.w3.org/1999/xlink"
   xmlns:sodipodi="http://sodipodi.sourceforge.net/DTD/sodipodi-0.dtd"
   xmlns:inkscape="http://www.inkscape.org/namespaces/inkscape"
   width="505"
   height="390"
   viewBox="0 0 133.61458 103.1875"
   version="1.1"
   id="svg8"
   inkscape:version="0.92.3 (2405546, 2018-03-11)"
   sodipodi:docname="menu_pong.svg"
   inkscape:export-filename="C:\Users\kezen\git\MiamiNightsDemo\art\menu_pong.png"
   inkscape:export-xdpi="96"
   inkscape:export-ydpi="96">
  <defs
     id="defs2" />
  <sodipodi:namedview
     id="base"
     pagecolor="#ffffff"
     bordercolor="#666666"
     borderopacity="1.0"
     inkscape:pageopacity="0.0"
     inkscape:pageshadow="2"
     inkscape:zoom="1.7932464"
     inkscape:cx="311.00987"
     inkscape:cy="81.910491"
     inkscape:document-units="mm"
     inkscape:current-layer="layer1"
     showgrid="false"
     units="px"
     inkscape:window-width="2736"
     inkscape:window-height="1699"
     inkscape:window-x="-13"
     inkscape:window-y="-13"
     inkscape:window-maximized="1" />
  <metadata
     id="metadata5">
    <rdf:RDF>
      <cc:Work
         rdf:about="">
        <dc:format>image/svg+xml</dc:format>
        <dc:type
           rdf:resource="http://purl.org/dc/dcmitype/StillImage" />
        <dc:title />
      </cc:Work>
    </rdf:RDF>
  </metadata>
  <g
     inkscape:label="Layer 1"
     inkscape:groupmode="layer"
     id="layer1"
     transform="translate(0,-193.81247)">
    <g
       id="g5191"
       transform="rotate(-15,-180.53712,192.14428)">
      <path
         style="fill:none;fill-opacity:1;stroke:#ff0800;stroke-width:6;stroke-miterlimit:4;stroke-dasharray:none;stroke-opacity:1"
         d="m 33,93.999969 h 140 c 16.62,0 30,13.380001 30,30.000001 v 140 c 0,16.62 -13.38,30 -30,30 H 33 c -16.62,0 -30,-13.38 -30,-30 v -140 c 0,-16.62 13.38,-30.000001 30,-30.000001 z"
         id="rect5177"
         inkscape:connector-curvature="0" />
      <path
         style="fill:none;fill-opacity:1;stroke:#ff9933;stroke-width:6;stroke-miterlimit:4;stroke-dasharray:none;stroke-opacity:1"
         d="m 33,99.999969 h 140 c 13.296,0 24,10.704001 24,24.000001 v 140 c 0,13.296 -10.704,24 -24,24 H 33 c -13.296,0 -24,-10.704 -24,-24 v -140 c 0,-13.296 10.704,-24.000001 24,-24.000001 z"
         id="rect5179"
         inkscape:connector-curvature="0" />
      <path
         style="fill:none;fill-opacity:1;stroke:#ffff00;stroke-width:6;stroke-miterlimit:4;stroke-dasharray:none;stroke-opacity:1"
         d="m 33,105.99997 h 140 c 9.972,0 18,8.028 18,18 v 140 c 0,9.972 -8.028,18 -18,18 H 33 c -9.972,0 -18,-8.028 -18,-18 v -140 c 0,-9.972 8.028,-18 18,-18 z"
         id="rect5181"
         inkscape:connector-curvature="0" />
    </g>
    <g
       id="g5186"
       transform="rotate(-7,959.36917,-746.19488)">
      <path
         inkscape:connector-curvature="0"
         id="path10"
         d="M -125.61668,190.49306 43.832195,164.30065"
         style="fill:#ff2a2a;stroke:#ffff00;stroke-width:6;stroke-linecap:butt;stroke-linejoin:miter;stroke-miterlimit:4;stroke-dasharray:none;stroke-opacity:1" />
      <path
         inkscape:connector-curvature="0"
         id="path10-8"
         d="M -126.55212,185.14768 42.896755,158.95527"
         style="fill:#ff2a2a;stroke:#ff9933;stroke-width:6;stroke-linecap:butt;stroke-linejoin:miter;stroke-miterlimit:4;stroke-dasharray:none;stroke-opacity:1" />
      <path
         inkscape:connector-curvature="0"
         id="path10-7"
         d="M -127.6212,179.53501 41.827675,153.3426"
         style="fill:#ff2a2a;stroke:#ff0000;stroke-width:6;stroke-linecap:butt;stroke-linejoin:miter;stroke-miterlimit:4;stroke-dasharray:none;stroke-opacity:1" />
    </g>
    <g
       id="g955"
       transform="translate(121.31742,24.457613)">
      <path
         sodipodi:type="inkscape:offset"
         inkscape:radius="1.5492185"
         inkscape:original="M -109.85938 204.87695 A 9.0766743 9.0766743 0 0 0 -118.93555 213.95312 A 9.0766743 9.0766743 0 0 0 -113.09375 222.42383 A 12.206563 12.206563 0 0 0 -114.76367 228.56055 A 12.206563 12.206563 0 0 0 -110.52344 237.79883 A 17.318712 17.318712 0 0 0 -118.62305 252.45117 A 17.318712 17.318712 0 0 0 -101.30469 269.76953 A 17.318712 17.318712 0 0 0 -84.070312 254.14258 A 15.023461 15.023461 0 0 0 -81.070312 252.74609 A 6.9999999 6.9999999 0 0 0 -74.804688 256.63477 A 6.9999999 6.9999999 0 0 0 -67.804688 249.63477 A 6.9999999 6.9999999 0 0 0 -74.126953 242.66797 A 15.023461 15.023461 0 0 0 -73.865234 239.93164 A 15.023461 15.023461 0 0 0 -88.888672 224.9082 A 15.023461 15.023461 0 0 0 -90.873047 225.05859 A 12.206563 12.206563 0 0 0 -101.13867 216.44336 A 9.0766743 9.0766743 0 0 0 -100.78125 213.95312 A 9.0766743 9.0766743 0 0 0 -109.85938 204.87695 z "
         xlink:href="#path929"
         style="fill:#2be8ff;fill-opacity:1;stroke:none;stroke-width:6;stroke-miterlimit:4;stroke-dasharray:none;stroke-opacity:1"
         id="path950"
         inkscape:href="#path929"
         d="m -109.85938,203.32812 c -2.78165,1.6e-4 -5.54674,1.14441 -7.51367,3.11133 -1.96692,1.96693 -3.11117,4.73202 -3.11133,7.51367 a 1.5493735,1.5493735 0 0 0 0,0.002 c 0.004,3.73164 2.24168,7.24618 5.45313,9.11523 -0.76571,1.73738 -1.2772,3.5874 -1.28125,5.48633 a 1.5493735,1.5493735 0 0 0 0,0.006 c 0.003,3.33784 1.34567,6.59863 3.55469,9.0957 -4.50356,3.52791 -7.41119,9.06102 -7.41407,14.79297 1.1e-4,4.93949 2.03265,9.84906 5.5254,13.3418 3.49274,3.49274 8.40231,5.52529 13.34179,5.52539 4.631668,-4e-4 9.240695,-1.77947 12.671878,-4.89063 3.200863,-2.90232 5.28466,-6.94977 5.925781,-11.2207 0.381721,-0.1539 0.747958,-0.33768 1.117187,-0.51953 1.598334,2.10408 4.132433,3.49423 6.783203,3.49609 a 1.5493735,1.5493735 0 0 0 0.002,0 c 2.238181,0 4.46229,-0.92127 6.044922,-2.5039 1.582633,-1.58263 2.503907,-3.80674 2.503907,-6.04492 -9.4e-5,-2.09995 -0.807543,-4.18907 -2.21875,-5.74415 -1.058195,-1.16607 -2.487445,-1.88465 -3.998047,-2.32617 0.05585,-0.54287 0.154207,-1.08122 0.15625,-1.62695 a 1.5493735,1.5493735 0 0 0 0,-0.006 c -6e-6,-4.33871 -1.785585,-8.65082 -4.853516,-11.71875 -3.06793,-3.06793 -7.380041,-4.85351 -11.71875,-4.85351 a 1.5493735,1.5493735 0 0 0 -0.01367,0 c -0.350146,0.003 -0.69764,0.0546 -1.046875,0.0801 -1.669225,-4.01366 -5.261217,-7.07133 -9.480469,-8.11133 0.06192,-0.45861 0.195636,-0.90636 0.197266,-1.36914 a 1.5493735,1.5493735 0 0 0 0,-0.006 c -1.54e-4,-2.78203 -1.145868,-5.54668 -3.113278,-7.51367 -1.96741,-1.96698 -4.73164,-3.11177 -7.51368,-3.11133 z" />
      <path
         sodipodi:type="inkscape:offset"
         inkscape:radius="0.72637129"
         inkscape:original="M -109.85938 204.87695 A 9.0766743 9.0766743 0 0 0 -118.93555 213.95312 A 9.0766743 9.0766743 0 0 0 -113.09375 222.42383 A 12.206563 12.206563 0 0 0 -114.76367 228.56055 A 12.206563 12.206563 0 0 0 -110.52344 237.79883 A 17.318712 17.318712 0 0 0 -118.62305 252.45117 A 17.318712 17.318712 0 0 0 -101.30469 269.76953 A 17.318712 17.318712 0 0 0 -84.070312 254.14258 A 15.023461 15.023461 0 0 0 -81.070312 252.74609 A 6.9999999 6.9999999 0 0 0 -74.804688 256.63477 A 6.9999999 6.9999999 0 0 0 -67.804688 249.63477 A 6.9999999 6.9999999 0 0 0 -74.126953 242.66797 A 15.023461 15.023461 0 0 0 -73.865234 239.93164 A 15.023461 15.023461 0 0 0 -88.888672 224.9082 A 15.023461 15.023461 0 0 0 -90.873047 225.05859 A 12.206563 12.206563 0 0 0 -101.13867 216.44336 A 9.0766743 9.0766743 0 0 0 -100.78125 213.95312 A 9.0766743 9.0766743 0 0 0 -109.85938 204.87695 z "
         xlink:href="#path929"
         style="fill:#2bc9ff;fill-opacity:1;stroke:none;stroke-width:22.67716599;stroke-miterlimit:4;stroke-dasharray:none;stroke-opacity:1"
         id="path948"
         inkscape:href="#path929"
         d="m -109.85938,204.15039 c -2.56624,1.4e-4 -5.11702,1.05648 -6.93164,2.87109 -1.81461,1.81462 -2.87095,4.3654 -2.87109,6.93164 0.002,1.96926 0.61442,3.93357 1.73242,5.55469 0.97589,1.41505 2.37284,2.48879 3.92578,3.22461 -0.92075,1.80586 -1.482,3.79882 -1.48632,5.82617 a 0.72644393,0.72644393 0 0 0 0,0.002 c 0.003,3.41953 1.48653,6.76597 3.91601,9.16797 -2.25184,1.5732 -4.19432,3.59755 -5.52344,6.00195 -1.46803,2.6557 -2.25043,5.68626 -2.25195,8.7207 1e-4,4.72407 1.94474,9.41935 5.28516,12.75977 3.34042,3.34042 8.03569,5.28506 12.75976,5.28515 4.429677,-3.8e-4 8.837598,-1.70225 12.119143,-4.67773 3.173728,-2.87772 5.228525,-6.92709 5.753906,-11.17774 0.732279,-0.27055 1.434966,-0.60842 2.119141,-0.98437 1.387642,2.21131 3.890328,3.70324 6.507812,3.70508 2.02276,0 4.032584,-0.83337 5.462891,-2.26367 1.430307,-1.43031 2.263672,-3.44014 2.263672,-5.46289 -8.5e-5,-1.89783 -0.730478,-3.78601 -2.005859,-5.19141 -1.109898,-1.22305 -2.648398,-1.9727 -4.267578,-2.29297 0.10758,-0.73539 0.210108,-1.47359 0.21289,-2.2168 a 0.72644393,0.72644393 0 0 0 0,-0.002 c -6e-6,-4.12329 -1.697676,-8.22111 -4.613281,-11.13672 -2.915605,-2.9156 -7.01343,-4.61327 -11.136719,-4.61328 a 0.72644393,0.72644393 0 0 0 -0.0059,0 c -0.515078,0.005 -1.028887,0.0619 -1.541016,0.11719 -0.766717,-2.16972 -2.05139,-4.15906 -3.814453,-5.63867 -1.728215,-1.45038 -3.865114,-2.3492 -6.08594,-2.74414 0.13556,-0.64844 0.27892,-1.29849 0.28125,-1.96094 a 0.72644393,0.72644393 0 0 0 0,-0.002 c -1.4e-4,-2.5666 -1.05799,-5.11697 -2.87304,-6.93164 -1.81506,-1.81466 -4.36504,-2.8715 -6.93165,-2.87109 z" />
      <path
         style="fill:#2ba8ff;fill-opacity:1;stroke:none;stroke-width:6;stroke-miterlimit:4;stroke-dasharray:none;stroke-opacity:1"
         d="m -109.85919,204.87696 a 9.0766743,9.0766743 0 0 0 -9.07645,9.07645 9.0766743,9.0766743 0 0 0 5.84151,8.46977 12.206563,12.206563 0 0 0 -1.66863,6.13658 12.206563,12.206563 0 0 0 4.23901,9.23923 17.318712,17.318712 0 0 0 -8.09924,14.65233 17.318712,17.318712 0 0 0 17.31884,17.31884 17.318712,17.318712 0 0 0 17.234602,-15.6285 15.023461,15.023461 0 0 0 2.998266,-1.3963 6.9999999,6.9999999 0 0 0 6.266802,3.88917 6.9999999,6.9999999 0 0 0 7.000089,-7.00009 6.9999999,6.9999999 0 0 0 -6.32261,-6.96598 15.023461,15.023461 0 0 0 0.261482,-2.73679 15.023461,15.023461 0 0 0 -15.023372,-15.02337 15.023461,15.023461 0 0 0 -1.983859,0.14935 12.206563,12.206563 0 0 0 -10.26604,-8.61343 9.0766743,9.0766743 0 0 0 0.35657,-2.49081 9.0766743,9.0766743 0 0 0 -9.07697,-9.07645 z"
         id="path929"
         inkscape:connector-curvature="0" />
    </g>
    <g
       transform="translate(277.51672,36.098041)"
       id="g927">
      <rect
         transform="translate(-121.02233,-20.031283)"
         style="fill:#ffff00;fill-opacity:1;stroke:none;stroke-width:6;stroke-miterlimit:4;stroke-dasharray:none;stroke-opacity:1"
         id="rect915"
         width="12.93687"
         height="23.578487"
         x="-97.130852"
         y="215.62288" />
      <rect
         transform="translate(-121.02233,-20.031283)"
         style="fill:#ffff00;fill-opacity:1;stroke:none;stroke-width:6;stroke-miterlimit:4;stroke-dasharray:none;stroke-opacity:1"
         id="rect917"
         width="11.058937"
         height="13.771506"
         x="-47.052635"
         y="216.24886" />
      <path
         d="m -211.30078,187.83594 c -2.12094,0 -4.24403,0.41373 -6.19531,1.25 a 5.3874377,5.3874377 0 0 0 -0.0371,0.0156 c -1.82638,0.79904 -3.50389,1.93359 -4.91016,3.33985 -0.0475,0.0475 -0.08,0.10808 -0.12695,0.15625 -0.13807,-0.15163 -0.19889,-0.361 -0.34375,-0.50586 -1.19971,-1.19971 -2.63797,-2.17199 -4.19141,-2.84375 -1.63918,-0.70885 -3.43382,-1.0625 -5.20508,-1.0625 h -9.66211 a 5.3874377,5.3874377 0 0 0 -5.38672,5.38672 v 28.32812 a 5.3874377,5.3874377 0 0 0 5.38672,5.38672 h 3.37696 a 5.3874377,5.3874377 0 0 0 5.38672,-5.38672 v -7.07031 h 0.89843 c 1.7713,0 3.56596,-0.3537 5.20508,-1.0625 0.0803,-0.0347 0.13904,-0.10828 0.21875,-0.14453 0.16074,1.55785 0.47471,3.09983 1.10352,4.53711 0.79903,1.82636 1.93356,3.50387 3.33984,4.91015 1.40893,1.40891 3.08812,2.54075 4.91016,3.33789 a 5.3874377,5.3874377 0 0 0 0.0371,0.0156 c 1.95124,0.83623 4.07434,1.25 6.19531,1.25 2.10051,0 4.20574,-0.41908 6.13476,-1.25977 1.13593,-0.48847 2.1875,-1.14475 3.1836,-1.8789 a 5.3874377,5.3874377 0 0 0 4.69336,2.75195 h 3.37695 a 5.3874377,5.3874377 0 0 0 5.38672,-5.38672 v -18.31641 c 0,-0.27894 0.0358,-0.38949 0.0918,-0.51757 a 5.3874377,5.3874377 0 0 0 0.0234,-0.0566 c 0.11389,-0.26846 0.20791,-0.3915 0.32422,-0.50782 0.17973,-0.17973 0.32851,-0.27288 0.53711,-0.36718 0.17867,-0.073 0.32428,-0.11133 0.58203,-0.11133 0.27161,0 0.38489,0.0348 0.51953,0.0937 a 5.3874377,5.3874377 0 0 0 0.0547,0.0234 c 0.23163,0.0983 0.32034,0.1693 0.42969,0.28321 a 5.3874377,5.3874377 0 0 0 0.15625,0.15625 c 0.11391,0.10935 0.18493,0.19805 0.2832,0.42969 a 5.3874377,5.3874377 0 0 0 0.0234,0.0547 c 0.0589,0.13465 0.0937,0.24795 0.0937,0.51953 v 18.31641 a 5.3874377,5.3874377 0 0 0 5.38672,5.38672 h 3.375 a 5.3874377,5.3874377 0 0 0 4.70898,-2.78516 c 0.99181,0.74142 2.03651,1.40952 3.17188,1.90625 a 5.3874377,5.3874377 0 0 0 0.0391,0.0156 c 1.95309,0.83702 4.0763,1.25 6.19727,1.25 2.10051,0 4.20573,-0.41908 6.13476,-1.25977 1.84344,-0.79271 3.5466,-1.92161 4.96875,-3.34375 1.40895,-1.40894 2.54075,-3.08813 3.33789,-4.91015 0.84511,-1.93169 1.26758,-4.04401 1.26758,-6.15625 v -3.76368 a 5.3874377,5.3874377 0 0 0 -3.1543,-4.89453 5.3874377,5.3874377 0 0 0 1.40821,-6.91406 c -1.40195,-2.48038 -3.38008,-4.60871 -5.76563,-6.14062 -2.42258,-1.57219 -5.3052,-2.45508 -8.19726,-2.45508 -2.12094,0 -4.24414,0.41294 -6.19727,1.25 a 5.3874377,5.3874377 0 0 0 -0.0391,0.0156 c -1.82826,0.79987 -3.50264,1.93625 -4.90625,3.33985 -0.41424,0.41424 -0.74912,0.89673 -1.11328,1.35547 -0.35511,-0.44413 -0.67833,-0.91466 -1.08008,-1.31641 -1.41687,-1.41687 -3.1173,-2.55036 -4.9668,-3.3457 -1.93096,-0.84155 -4.03622,-1.25977 -6.13672,-1.25977 -2.10729,0 -4.21741,0.41907 -6.15625,1.25 a 5.3874377,5.3874377 0 0 0 -0.0371,0.0156 c -1.82636,0.79904 -3.50387,1.93356 -4.91015,3.33985 -0.38929,0.38929 -0.70135,0.84622 -1.04688,1.27539 -0.3547,-0.44373 -0.6783,-0.91268 -1.08008,-1.31445 -1.41952,-1.41953 -3.12107,-2.55116 -4.96875,-3.34571 -1.92906,-0.84072 -4.03427,-1.25976 -6.13476,-1.25976 z m -14.48242,9.55468 c -0.003,0.006 -0.003,0.0133 -0.006,0.0195 -0.003,0.006 -0.007,0.0114 -0.01,0.0176 z m 28.92578,0 0.0156,0.0371 c -0.003,-0.006 -0.007,-0.0114 -0.01,-0.0176 -0.003,-0.006 -0.003,-0.0133 -0.006,-0.0195 z m 19.84765,0 c -0.003,0.006 -0.003,0.0133 -0.006,0.0195 -0.003,0.006 -0.007,0.0114 -0.01,0.0176 z m -24.40039,0.0371 c -0.003,0.006 -0.003,0.0133 -0.006,0.0195 -0.003,0.006 -0.007,0.0114 -0.01,0.0176 z m 28.88672,0 0.0156,0.0371 c -0.003,-0.006 -0.007,-0.0114 -0.01,-0.0176 -0.003,-0.006 -0.003,-0.0133 -0.006,-0.0195 z m -38.77734,4.5586 c 0.27894,0 0.38949,0.0358 0.51758,0.0918 a 5.3874377,5.3874377 0 0 0 0.0566,0.0234 c 0.22243,0.0944 0.31069,0.16324 0.42773,0.28516 a 5.3874377,5.3874377 0 0 0 0.15625,0.15625 c 0.1219,0.11702 0.19079,0.20529 0.28516,0.42773 a 5.3874377,5.3874377 0 0 0 0.0234,0.0566 c 0.056,0.12809 0.0918,0.23864 0.0918,0.51758 v 8.45899 c 0,0.26558 -0.0382,0.41017 -0.10937,0.58398 -0.0823,0.18075 -0.15396,0.28834 -0.29102,0.41992 a 5.3874377,5.3874377 0 0 0 -0.0781,0.0781 c -0.12032,0.12032 -0.24014,0.21149 -0.50586,0.32422 a 5.3874377,5.3874377 0 0 0 -0.0566,0.0234 c -0.12809,0.056 -0.23864,0.0918 -0.51758,0.0918 -0.26645,0 -0.41141,-0.0377 -0.58594,-0.10937 -0.22622,-0.10217 -0.39145,-0.21769 -0.56445,-0.37696 -0.11637,-0.12249 -0.20709,-0.24739 -0.29883,-0.44922 -0.074,-0.18021 -0.11133,-0.32651 -0.11133,-0.58593 v -8.45899 c 0,-0.27159 0.0349,-0.38296 0.0937,-0.51758 a 5.3874377,5.3874377 0 0 0 0.0234,-0.0566 c 0.11273,-0.26573 0.20391,-0.38554 0.32422,-0.50586 0.18338,-0.18337 0.33204,-0.27725 0.53515,-0.36914 0.1738,-0.0712 0.3184,-0.10937 0.58399,-0.10937 z m 48.77344,0 c 0.25303,0 0.32534,0.001 0.68164,0.23633 0.2419,0.15943 0.39123,0.41711 0.56445,0.63086 h -0.4707 a 5.3874377,5.3874377 0 0 0 -2.30664,0.52734 c 0.0143,-0.13063 0.0242,-0.26604 0.0625,-0.35352 a 5.3874377,5.3874377 0 0 0 0.0234,-0.0566 c 0.11274,-0.26573 0.20392,-0.38556 0.32422,-0.50586 0.17975,-0.17974 0.33125,-0.27595 0.53711,-0.36914 0.17381,-0.0712 0.31838,-0.10937 0.58399,-0.10937 z"
         inkscape:href="#text887"
         id="path895"
         style="font-style:normal;font-weight:normal;font-size:10.58333302px;line-height:1.25;font-family:sans-serif;letter-spacing:0px;word-spacing:0px;fill:#ffff00;fill-opacity:1;stroke:none;stroke-width:0.26458332"
         xlink:href="#text887"
         inkscape:original="M -211.30078 193.22266 C -212.74952 193.22266 -214.10735 193.49383 -215.375 194.03711 C -216.61678 194.58039 -217.70343 195.31867 -218.63477 196.25 C -219.5661 197.18133 -220.30438 198.28118 -220.84766 199.54883 C -221.39093 200.79061 -221.66211 202.12205 -221.66211 203.54492 L -221.66211 212.00391 C -221.66211 213.42678 -221.39093 214.76018 -220.84766 216.00195 C -220.30438 217.24373 -219.5661 218.33039 -218.63477 219.26172 C -217.70343 220.19305 -216.61678 220.92938 -215.375 221.47266 C -214.10735 222.01593 -212.74952 222.28711 -211.30078 222.28711 C -209.87791 222.28711 -208.54647 222.01593 -207.30469 221.47266 C -206.03704 220.92938 -204.93719 220.19305 -204.00586 219.26172 C -203.07453 218.33039 -202.33625 217.24373 -201.79297 216.00195 C -201.24969 214.76018 -200.97852 213.42678 -200.97852 212.00391 L -200.97852 203.54492 C -200.97852 202.12205 -201.24969 200.79061 -201.79297 199.54883 C -202.33625 198.28118 -203.07453 197.18133 -204.00586 196.25 C -204.93719 195.31867 -206.03704 194.58039 -207.30469 194.03711 C -208.54647 193.49383 -209.87791 193.22266 -211.30078 193.22266 z M -162.52734 193.22266 C -163.97608 193.22266 -165.33587 193.49383 -166.60352 194.03711 C -167.84529 194.58039 -168.92999 195.31867 -169.86133 196.25 C -170.79266 197.18133 -171.53094 198.28118 -172.07422 199.54883 C -172.6175 200.79061 -172.88867 202.12205 -172.88867 203.54492 L -172.88867 212.00391 C -172.88867 213.42678 -172.6175 214.76018 -172.07422 216.00195 C -171.53094 217.24373 -170.79266 218.33039 -169.86133 219.26172 C -168.92999 220.19305 -167.84529 220.92938 -166.60352 221.47266 C -165.33587 222.01593 -163.97608 222.28711 -162.52734 222.28711 C -161.10447 222.28711 -159.77303 222.01593 -158.53125 221.47266 C -157.2636 220.92938 -156.16376 220.19305 -155.23242 219.26172 C -154.30109 218.33039 -153.56476 217.24373 -153.02148 216.00195 C -152.47821 214.76018 -152.20508 213.42678 -152.20508 212.00391 L -152.20508 208.24023 L -161.75195 208.24023 L -161.75195 211.61719 L -155.58203 211.61719 L -155.58203 212.00391 C -155.58203 212.96111 -155.76281 213.86698 -156.125 214.7207 C -156.48719 215.54856 -156.99191 216.27364 -157.63867 216.89453 C -158.25956 217.51542 -158.99589 218.00696 -159.84961 218.36914 C -160.67746 218.73133 -161.57014 218.91211 -162.52734 218.91211 C -163.48455 218.91211 -164.39042 218.73133 -165.24414 218.36914 C -166.07199 218.00696 -166.81027 217.51542 -167.45703 216.89453 C -168.07792 216.27364 -168.56946 215.54856 -168.93164 214.7207 C -169.29383 213.86698 -169.47461 212.96111 -169.47461 212.00391 L -169.47461 203.54492 C -169.47461 202.58772 -169.29383 201.69504 -168.93164 200.86719 C -168.56946 200.01347 -168.07792 199.27714 -167.45703 198.65625 C -166.81027 198.00949 -166.07199 197.50476 -165.24414 197.14258 C -164.39042 196.78039 -163.48455 196.59961 -162.52734 196.59961 C -161.23383 196.59961 -160.01916 196.97437 -158.88086 197.72461 C -157.74256 198.47485 -156.83669 199.47111 -156.16406 200.71289 L -153.25391 199.08203 C -154.26285 197.29698 -155.5943 195.87514 -157.25 194.81445 C -158.87983 193.75377 -160.63881 193.22266 -162.52734 193.22266 z M -186.9668 193.26172 C -188.38967 193.26172 -189.7343 193.53289 -191.00195 194.07617 C -192.24373 194.61945 -193.33039 195.35773 -194.26172 196.28906 C -195.19305 197.2204 -195.93133 198.31829 -196.47461 199.58594 C -197.01789 200.82772 -197.28906 202.16111 -197.28906 203.58398 L -197.28906 221.90039 L -193.91211 221.90039 L -193.91211 203.58398 C -193.91211 202.62678 -193.73133 201.7341 -193.36914 200.90625 C -193.00696 200.05253 -192.51542 199.31425 -191.89453 198.69336 C -191.24777 198.0466 -190.51145 197.54383 -189.68359 197.18164 C -188.82987 196.81946 -187.924 196.63672 -186.9668 196.63672 C -186.00959 196.63672 -185.11691 196.81946 -184.28906 197.18164 C -183.43534 197.54383 -182.69706 198.0466 -182.07617 198.69336 C -181.42941 199.31425 -180.92664 200.05253 -180.56445 200.90625 C -180.20227 201.7341 -180.01953 202.62678 -180.01953 203.58398 L -180.01953 221.90039 L -176.64453 221.90039 L -176.64453 203.58398 C -176.64453 202.16111 -176.91571 200.82772 -177.45898 199.58594 C -178.00226 198.31829 -178.74054 197.2204 -179.67188 196.28906 C -180.60321 195.35773 -181.7011 194.61945 -182.96875 194.07617 C -184.21053 193.53289 -185.54393 193.26172 -186.9668 193.26172 z M -241.97266 193.57227 L -241.97266 221.90039 L -238.5957 221.90039 L -238.5957 209.44336 L -232.31055 209.44336 C -231.22399 209.44336 -230.20134 209.23619 -229.24414 208.82227 C -228.28694 208.40834 -227.44703 207.8528 -226.72266 207.1543 C -225.99829 206.42993 -225.42955 205.58806 -225.01562 204.63086 C -224.6017 203.64779 -224.39453 202.6139 -224.39453 201.52734 C -224.39453 200.41492 -224.6017 199.37908 -225.01562 198.42188 C -225.42955 197.46467 -225.99829 196.62476 -226.72266 195.90039 C -227.44703 195.17602 -228.28694 194.60729 -229.24414 194.19336 C -230.20134 193.77943 -231.22399 193.57227 -232.31055 193.57227 L -241.97266 193.57227 z M -211.30078 196.59961 C -210.34358 196.59961 -209.4509 196.78039 -208.62305 197.14258 C -207.76932 197.50476 -207.033 198.00949 -206.41211 198.65625 C -205.76535 199.27714 -205.26062 200.01347 -204.89844 200.86719 C -204.53625 201.69504 -204.35547 202.58772 -204.35547 203.54492 L -204.35547 212.00391 C -204.35547 212.96111 -204.53625 213.86698 -204.89844 214.7207 C -205.26062 215.54856 -205.76535 216.27364 -206.41211 216.89453 C -207.033 217.51542 -207.76932 218.00696 -208.62305 218.36914 C -209.4509 218.73133 -210.34358 218.91211 -211.30078 218.91211 C -212.25798 218.91211 -213.16386 218.73133 -214.01758 218.36914 C -214.84543 218.00696 -215.58176 217.51542 -216.22852 216.89453 C -216.8494 216.27364 -217.34094 215.54856 -217.70312 214.7207 C -218.06531 213.86698 -218.24805 212.96111 -218.24805 212.00391 L -218.24805 203.54492 C -218.24805 202.58772 -218.06531 201.69504 -217.70312 200.86719 C -217.34094 200.01347 -216.8494 199.27714 -216.22852 198.65625 C -215.58176 198.00949 -214.84543 197.50476 -214.01758 197.14258 C -213.16386 196.78039 -212.25798 196.59961 -211.30078 196.59961 z M -238.5957 196.98633 L -232.31055 196.98633 C -231.68966 196.98633 -231.10773 197.1031 -230.56445 197.33594 C -229.9953 197.56877 -229.51696 197.89271 -229.12891 198.30664 C -228.71498 198.72057 -228.39104 199.2121 -228.1582 199.78125 C -227.8995 200.32453 -227.76953 200.90645 -227.76953 201.52734 C -227.76953 202.14823 -227.8995 202.73016 -228.1582 203.27344 C -228.39104 203.81672 -228.71498 204.29506 -229.12891 204.70898 C -229.51696 205.12291 -229.9953 205.44685 -230.56445 205.67969 C -231.10773 205.91252 -231.68966 206.0293 -232.31055 206.0293 L -238.5957 206.0293 L -238.5957 196.98633 z "
         inkscape:radius="5.386899"
         sodipodi:type="inkscape:offset" />
      <path
         d="m -211.30078,190.61523 c -1.77415,0 -3.50297,0.34028 -5.10156,1.02539 a 2.6080677,2.6080677 0 0 0 -0.0176,0.008 c -1.52478,0.66709 -2.89734,1.59657 -4.0586,2.75781 -0.89297,0.89297 -1.5088,2.01612 -2.11132,3.14063 -0.0208,-0.0504 -0.01,-0.11012 -0.0312,-0.16016 -0.53876,-1.24587 -1.30334,-2.37561 -2.25782,-3.33008 -0.95448,-0.95448 -2.08423,-1.71906 -3.33007,-2.25781 -1.28735,-0.5567 -2.68354,-0.83399 -4.10157,-0.83399 h -9.66211 a 2.6080677,2.6080677 0 0 0 -2.60742,2.60743 v 28.32812 a 2.6080677,2.6080677 0 0 0 2.60742,2.60742 h 3.37696 a 2.6080677,2.6080677 0 0 0 2.60742,-2.60742 v -9.84961 h 3.67773 c 1.41804,0 2.81424,-0.27731 4.10157,-0.83398 1.22731,-0.53074 2.34478,-1.26746 3.29687,-2.18555 a 2.6080677,2.6080677 0 0 0 0.0332,-0.0332 c 0.25789,-0.25789 0.38029,-0.61625 0.60938,-0.89844 v 3.9043 c 0,1.75421 0.34289,3.4651 1.0332,5.04297 0.66709,1.52477 1.59656,2.89733 2.75781,4.05859 1.16254,1.16253 2.53592,2.08968 4.0586,2.75586 a 2.6080677,2.6080677 0 0 0 0.0176,0.008 c 1.59857,0.68509 3.32739,1.02539 5.10156,1.02539 1.75,0 3.4555,-0.34271 5.0293,-1.0293 1.54718,-0.66402 2.93979,-1.59018 4.10937,-2.75976 0.95395,-0.95395 1.64141,-2.12762 2.26563,-3.33399 v 4.12891 a 2.6080677,2.6080677 0 0 0 2.60742,2.60742 h 3.37695 a 2.6080677,2.6080677 0 0 0 2.60742,-2.60742 v -18.31641 c 0,-0.62885 0.11024,-1.14372 0.32422,-1.63281 a 2.6080677,2.6080677 0 0 0 0.0117,-0.0273 c 0.24198,-0.57039 0.54135,-1.0101 0.91797,-1.38672 0.42063,-0.42063 0.86918,-0.72334 1.39844,-0.95703 0.52933,-0.22271 1.06523,-0.33594 1.68554,-0.33594 0.62531,0 1.14055,0.11081 1.63282,0.32617 a 2.6080677,2.6080677 0 0 0 0.0273,0.0117 c 0.55257,0.23443 0.97635,0.52916 1.34961,0.91797 a 2.6080677,2.6080677 0 0 0 0.0742,0.0742 c 0.3888,0.37325 0.68354,0.79704 0.91797,1.34961 a 2.6080677,2.6080677 0 0 0 0.0117,0.0273 c 0.21536,0.49227 0.32617,1.00752 0.32617,1.63281 v 18.31641 a 2.6080677,2.6080677 0 0 0 2.60742,2.60742 h 3.375 a 2.6080677,2.6080677 0 0 0 2.60742,-2.60742 v -4.22656 c 0.63203,1.24831 1.35013,2.44974 2.33203,3.43164 1.16126,1.16124 2.53305,2.08928 4.05664,2.75586 a 2.6080677,2.6080677 0 0 0 0.0176,0.008 c 1.59947,0.68548 3.32935,1.02539 5.10352,1.02539 1.75,0 3.4555,-0.34271 5.02929,-1.0293 1.54719,-0.66402 2.9398,-1.59019 4.10938,-2.75976 1.16254,-1.16254 2.08968,-2.53592 2.75586,-4.05859 0.68939,-1.57577 1.03515,-3.28638 1.03515,-5.04297 v -3.76368 a 2.6080677,2.6080677 0 0 0 -2.60742,-2.60742 h -9.54687 a 2.6080677,2.6080677 0 0 0 -2.60743,2.60742 v 3.37696 a 2.6080677,2.6080677 0 0 0 2.60743,2.60742 h 2.85547 c -0.17188,0.26736 -0.31064,0.5604 -0.54883,0.78906 a 2.6080677,2.6080677 0 0 0 -0.0371,0.0371 c -0.37856,0.37856 -0.81569,0.67655 -1.38477,0.91797 a 2.6080677,2.6080677 0 0 0 -0.0273,0.0117 c -0.48909,0.21398 -1.00396,0.32422 -1.63281,0.32422 -0.62386,0 -1.15927,-0.11258 -1.68555,-0.33399 -0.54057,-0.23852 -0.99762,-0.5456 -1.41602,-0.94336 -0.3762,-0.38078 -0.67053,-0.80845 -0.90429,-1.33789 -0.22141,-0.52627 -0.33399,-1.0617 -0.33399,-1.68554 v -8.45899 c 0,-0.62885 0.11024,-1.14372 0.32422,-1.63281 a 2.6080677,2.6080677 0 0 0 0.0117,-0.0273 c 0.24142,-0.56908 0.53941,-1.00622 0.91797,-1.38477 0.42064,-0.42064 0.8728,-0.72601 1.40039,-0.95898 0.52628,-0.22141 1.06169,-0.33399 1.68555,-0.33399 0.78981,0 1.4512,0.19458 2.21093,0.69531 0.78339,0.51632 1.37556,1.15953 1.85938,2.05274 a 2.6080677,2.6080677 0 0 0 3.56836,1.0332 l 2.91015,-1.63086 a 2.6080677,2.6080677 0 0 0 0.99414,-3.55859 c -1.19924,-2.12175 -2.84437,-3.88507 -4.85351,-5.17383 -2.01309,-1.30774 -4.31552,-2.00977 -6.68945,-2.00977 -1.77416,0 -3.50403,0.3399 -5.10352,1.02539 a 2.6080677,2.6080677 0 0 0 -0.0176,0.008 c -1.52569,0.66749 -2.89667,1.59786 -4.05664,2.75781 -1.1683,1.1683 -2.0968,2.56012 -2.76172,4.10937 -0.13591,0.31155 -0.19774,0.64753 -0.30664,0.96876 -0.10564,-0.30835 -0.16236,-0.63226 -0.29297,-0.93165 -0.66529,-1.55013 -1.5947,-2.9404 -2.76171,-4.10742 -1.16701,-1.16701 -2.55729,-2.09642 -4.10743,-2.76172 -1.57473,-0.687 -3.28125,-1.02929 -5.03125,-1.02929 -1.7542,0 -3.46992,0.34285 -5.0625,1.02539 a 2.6080677,2.6080677 0 0 0 -0.0176,0.008 c -1.52477,0.66709 -2.89733,1.59656 -4.05859,2.75781 -1.167,1.16701 -2.09642,2.55729 -2.76172,4.10742 -0.11582,0.26549 -0.16358,0.55358 -0.25976,0.82618 -0.0997,-0.2854 -0.15232,-0.58565 -0.27344,-0.86329 -0.66491,-1.54925 -1.59342,-2.94107 -2.76172,-4.10937 -1.1683,-1.1683 -2.56012,-2.09681 -4.10937,-2.76172 -1.57382,-0.6866 -3.27931,-1.0293 -5.0293,-1.0293 z m 0,8.5918 c 0.62885,0 1.14372,0.11024 1.63281,0.32422 a 2.6080677,2.6080677 0 0 0 0.0273,0.0117 c 0.54811,0.23253 0.97068,0.52724 1.34765,0.91992 a 2.6080677,2.6080677 0 0 0 0.0742,0.0742 c 0.39267,0.37697 0.68739,0.79954 0.91992,1.34766 a 2.6080677,2.6080677 0 0 0 0.0117,0.0273 c 0.21398,0.48909 0.32422,1.00396 0.32422,1.63281 v 8.45899 c 0,0.62315 -0.11307,1.15788 -0.33399,1.68359 -0.2288,0.51831 -0.52161,0.94192 -0.92187,1.32617 a 2.6080677,2.6080677 0 0 0 -0.0371,0.0371 c -0.37856,0.37857 -0.81569,0.67655 -1.38476,0.91797 a 2.6080677,2.6080677 0 0 0 -0.0273,0.0117 c -0.48909,0.21398 -1.00396,0.32422 -1.63281,0.32422 -0.62385,0 -1.15928,-0.11258 -1.68555,-0.33399 -0.53919,-0.23792 -0.99395,-0.54393 -1.41406,-0.94336 -0.3762,-0.38078 -0.67053,-0.80845 -0.9043,-1.33789 -0.22271,-0.52932 -0.33594,-1.06523 -0.33593,-1.68554 v -8.45899 c 0,-0.62529 0.1108,-1.14055 0.32617,-1.63281 a 2.6080677,2.6080677 0 0 0 0.0117,-0.0273 c 0.24142,-0.56908 0.53941,-1.00621 0.91796,-1.38477 0.42247,-0.42247 0.87224,-0.72662 1.39844,-0.95898 0.52627,-0.22141 1.0617,-0.33399 1.68555,-0.33399 z m -24.6875,0.38672 h 3.67773 c 0.29393,0 0.50506,0.0471 0.71875,0.13867 a 2.6080677,2.6080677 0 0 0 0.0391,0.0176 c 0.25852,0.10576 0.40046,0.21075 0.52148,0.33984 a 2.6080677,2.6080677 0 0 0 0.0586,0.0605 c 0.16507,0.16507 0.28928,0.34753 0.40039,0.61914 a 2.6080677,2.6080677 0 0 0 0.0606,0.13281 c 0.0937,0.19676 0.13477,0.36804 0.13477,0.625 0,0.25697 -0.0411,0.42825 -0.13477,0.625 a 2.6080677,2.6080677 0 0 0 -0.043,0.0937 c -0.10618,0.24775 -0.23333,0.43452 -0.41797,0.61914 a 2.6080677,2.6080677 0 0 0 -0.0586,0.0606 c -0.12102,0.1291 -0.26294,0.23407 -0.52148,0.33984 a 2.6080677,2.6080677 0 0 0 -0.0391,0.0176 c -0.21374,0.0916 -0.42485,0.13867 -0.71875,0.13868 h -3.67773 z"
         inkscape:href="#text887"
         id="path891"
         style="font-style:normal;font-weight:normal;font-size:10.58333302px;line-height:1.25;font-family:sans-serif;letter-spacing:0px;word-spacing:0px;fill:#ff9933;fill-opacity:1;stroke:none;stroke-width:0.26458332;stroke-opacity:1"
         xlink:href="#text887"
         inkscape:original="M -211.30078 193.22266 C -212.74952 193.22266 -214.10735 193.49383 -215.375 194.03711 C -216.61678 194.58039 -217.70343 195.31867 -218.63477 196.25 C -219.5661 197.18133 -220.30438 198.28118 -220.84766 199.54883 C -221.39093 200.79061 -221.66211 202.12205 -221.66211 203.54492 L -221.66211 212.00391 C -221.66211 213.42678 -221.39093 214.76018 -220.84766 216.00195 C -220.30438 217.24373 -219.5661 218.33039 -218.63477 219.26172 C -217.70343 220.19305 -216.61678 220.92938 -215.375 221.47266 C -214.10735 222.01593 -212.74952 222.28711 -211.30078 222.28711 C -209.87791 222.28711 -208.54647 222.01593 -207.30469 221.47266 C -206.03704 220.92938 -204.93719 220.19305 -204.00586 219.26172 C -203.07453 218.33039 -202.33625 217.24373 -201.79297 216.00195 C -201.24969 214.76018 -200.97852 213.42678 -200.97852 212.00391 L -200.97852 203.54492 C -200.97852 202.12205 -201.24969 200.79061 -201.79297 199.54883 C -202.33625 198.28118 -203.07453 197.18133 -204.00586 196.25 C -204.93719 195.31867 -206.03704 194.58039 -207.30469 194.03711 C -208.54647 193.49383 -209.87791 193.22266 -211.30078 193.22266 z M -162.52734 193.22266 C -163.97608 193.22266 -165.33587 193.49383 -166.60352 194.03711 C -167.84529 194.58039 -168.92999 195.31867 -169.86133 196.25 C -170.79266 197.18133 -171.53094 198.28118 -172.07422 199.54883 C -172.6175 200.79061 -172.88867 202.12205 -172.88867 203.54492 L -172.88867 212.00391 C -172.88867 213.42678 -172.6175 214.76018 -172.07422 216.00195 C -171.53094 217.24373 -170.79266 218.33039 -169.86133 219.26172 C -168.92999 220.19305 -167.84529 220.92938 -166.60352 221.47266 C -165.33587 222.01593 -163.97608 222.28711 -162.52734 222.28711 C -161.10447 222.28711 -159.77303 222.01593 -158.53125 221.47266 C -157.2636 220.92938 -156.16376 220.19305 -155.23242 219.26172 C -154.30109 218.33039 -153.56476 217.24373 -153.02148 216.00195 C -152.47821 214.76018 -152.20508 213.42678 -152.20508 212.00391 L -152.20508 208.24023 L -161.75195 208.24023 L -161.75195 211.61719 L -155.58203 211.61719 L -155.58203 212.00391 C -155.58203 212.96111 -155.76281 213.86698 -156.125 214.7207 C -156.48719 215.54856 -156.99191 216.27364 -157.63867 216.89453 C -158.25956 217.51542 -158.99589 218.00696 -159.84961 218.36914 C -160.67746 218.73133 -161.57014 218.91211 -162.52734 218.91211 C -163.48455 218.91211 -164.39042 218.73133 -165.24414 218.36914 C -166.07199 218.00696 -166.81027 217.51542 -167.45703 216.89453 C -168.07792 216.27364 -168.56946 215.54856 -168.93164 214.7207 C -169.29383 213.86698 -169.47461 212.96111 -169.47461 212.00391 L -169.47461 203.54492 C -169.47461 202.58772 -169.29383 201.69504 -168.93164 200.86719 C -168.56946 200.01347 -168.07792 199.27714 -167.45703 198.65625 C -166.81027 198.00949 -166.07199 197.50476 -165.24414 197.14258 C -164.39042 196.78039 -163.48455 196.59961 -162.52734 196.59961 C -161.23383 196.59961 -160.01916 196.97437 -158.88086 197.72461 C -157.74256 198.47485 -156.83669 199.47111 -156.16406 200.71289 L -153.25391 199.08203 C -154.26285 197.29698 -155.5943 195.87514 -157.25 194.81445 C -158.87983 193.75377 -160.63881 193.22266 -162.52734 193.22266 z M -186.9668 193.26172 C -188.38967 193.26172 -189.7343 193.53289 -191.00195 194.07617 C -192.24373 194.61945 -193.33039 195.35773 -194.26172 196.28906 C -195.19305 197.2204 -195.93133 198.31829 -196.47461 199.58594 C -197.01789 200.82772 -197.28906 202.16111 -197.28906 203.58398 L -197.28906 221.90039 L -193.91211 221.90039 L -193.91211 203.58398 C -193.91211 202.62678 -193.73133 201.7341 -193.36914 200.90625 C -193.00696 200.05253 -192.51542 199.31425 -191.89453 198.69336 C -191.24777 198.0466 -190.51145 197.54383 -189.68359 197.18164 C -188.82987 196.81946 -187.924 196.63672 -186.9668 196.63672 C -186.00959 196.63672 -185.11691 196.81946 -184.28906 197.18164 C -183.43534 197.54383 -182.69706 198.0466 -182.07617 198.69336 C -181.42941 199.31425 -180.92664 200.05253 -180.56445 200.90625 C -180.20227 201.7341 -180.01953 202.62678 -180.01953 203.58398 L -180.01953 221.90039 L -176.64453 221.90039 L -176.64453 203.58398 C -176.64453 202.16111 -176.91571 200.82772 -177.45898 199.58594 C -178.00226 198.31829 -178.74054 197.2204 -179.67188 196.28906 C -180.60321 195.35773 -181.7011 194.61945 -182.96875 194.07617 C -184.21053 193.53289 -185.54393 193.26172 -186.9668 193.26172 z M -241.97266 193.57227 L -241.97266 221.90039 L -238.5957 221.90039 L -238.5957 209.44336 L -232.31055 209.44336 C -231.22399 209.44336 -230.20134 209.23619 -229.24414 208.82227 C -228.28694 208.40834 -227.44703 207.8528 -226.72266 207.1543 C -225.99829 206.42993 -225.42955 205.58806 -225.01562 204.63086 C -224.6017 203.64779 -224.39453 202.6139 -224.39453 201.52734 C -224.39453 200.41492 -224.6017 199.37908 -225.01562 198.42188 C -225.42955 197.46467 -225.99829 196.62476 -226.72266 195.90039 C -227.44703 195.17602 -228.28694 194.60729 -229.24414 194.19336 C -230.20134 193.77943 -231.22399 193.57227 -232.31055 193.57227 L -241.97266 193.57227 z M -211.30078 196.59961 C -210.34358 196.59961 -209.4509 196.78039 -208.62305 197.14258 C -207.76932 197.50476 -207.033 198.00949 -206.41211 198.65625 C -205.76535 199.27714 -205.26062 200.01347 -204.89844 200.86719 C -204.53625 201.69504 -204.35547 202.58772 -204.35547 203.54492 L -204.35547 212.00391 C -204.35547 212.96111 -204.53625 213.86698 -204.89844 214.7207 C -205.26062 215.54856 -205.76535 216.27364 -206.41211 216.89453 C -207.033 217.51542 -207.76932 218.00696 -208.62305 218.36914 C -209.4509 218.73133 -210.34358 218.91211 -211.30078 218.91211 C -212.25798 218.91211 -213.16386 218.73133 -214.01758 218.36914 C -214.84543 218.00696 -215.58176 217.51542 -216.22852 216.89453 C -216.8494 216.27364 -217.34094 215.54856 -217.70312 214.7207 C -218.06531 213.86698 -218.24805 212.96111 -218.24805 212.00391 L -218.24805 203.54492 C -218.24805 202.58772 -218.06531 201.69504 -217.70312 200.86719 C -217.34094 200.01347 -216.8494 199.27714 -216.22852 198.65625 C -215.58176 198.00949 -214.84543 197.50476 -214.01758 197.14258 C -213.16386 196.78039 -212.25798 196.59961 -211.30078 196.59961 z M -238.5957 196.98633 L -232.31055 196.98633 C -231.68966 196.98633 -231.10773 197.1031 -230.56445 197.33594 C -229.9953 197.56877 -229.51696 197.89271 -229.12891 198.30664 C -228.71498 198.72057 -228.39104 199.2121 -228.1582 199.78125 C -227.8995 200.32453 -227.76953 200.90645 -227.76953 201.52734 C -227.76953 202.14823 -227.8995 202.73016 -228.1582 203.27344 C -228.39104 203.81672 -228.71498 204.29506 -229.12891 204.70898 C -229.51696 205.12291 -229.9953 205.44685 -230.56445 205.67969 C -231.10773 205.91252 -231.68966 206.0293 -232.31055 206.0293 L -238.5957 206.0293 L -238.5957 196.98633 z "
         inkscape:radius="2.6078069"
         sodipodi:type="inkscape:offset" />
      <text
         id="text887"
         y="221.8999"
         x="-241.9727"
         style="font-style:normal;font-weight:normal;font-size:10.58333302px;line-height:1.25;font-family:sans-serif;letter-spacing:0px;word-spacing:0px;fill:#000000;fill-opacity:1;stroke:none;stroke-width:0.26458332"
         xml:space="preserve"><tspan
           style="font-style:normal;font-variant:normal;font-weight:bold;font-stretch:normal;font-size:38.80555725px;font-family:TimeBurner;-inkscape-font-specification:'TimeBurner, Bold';font-variant-ligatures:normal;font-variant-caps:normal;font-variant-numeric:normal;font-feature-settings:normal;text-align:start;writing-mode:lr-tb;text-anchor:start;stroke-width:0.26458332"
           y="221.8999"
           x="-241.9727"
           id="tspan885"
           sodipodi:role="line">PONG</tspan></text>
    </g>
  </g>
</svg>
