<?xml version="1.0" encoding="UTF-8" standalone="no"?>
<!-- Created with Inkscape (http://www.inkscape.org/) -->

<svg
   xmlns:dc="http://purl.org/dc/elements/1.1/"
   xmlns:cc="http://creativecommons.org/ns#"
   xmlns:rdf="http://www.w3.org/1999/02/22-rdf-syntax-ns#"
   xmlns:svg="http://www.w3.org/2000/svg"
   xmlns="http://www.w3.org/2000/svg"
   xmlns:xlink="http://www.w3.org/1999/xlink"
   xmlns:sodipodi="http://sodipodi.sourceforge.net/DTD/sodipodi-0.dtd"
   xmlns:inkscape="http://www.inkscape.org/namespaces/inkscape"
   width="210mm"
   height="297mm"
   viewBox="0 0 210 297"
   version="1.1"
   id="svg8"
   inkscape:version="0.92.1 r15371"
   sodipodi:docname="neon_palm.svg">
  <defs
     id="defs2">
    <linearGradient
       inkscape:collect="always"
       id="linearGradient4617">
      <stop
         style="stop-color:#0062ff;stop-opacity:1"
         offset="0"
         id="stop4613" />
      <stop
         id="stop4665"
         offset="0.21379113"
         style="stop-color:#06d7ce;stop-opacity:0.99215686" />
      <stop
         id="stop4663"
         offset="0.47007176"
         style="stop-color:#46ea2b;stop-opacity:0.97209305" />
      <stop
         id="stop4661"
         offset="0.7850489"
         style="stop-color:#ffee18;stop-opacity:0.98039216" />
      <stop
         style="stop-color:#ee4100;stop-opacity:0.97647059"
         offset="1"
         id="stop4615" />
    </linearGradient>
    <linearGradient
       inkscape:collect="always"
       xlink:href="#linearGradient4617"
       id="linearGradient4659"
       gradientUnits="userSpaceOnUse"
       x1="-174.6685"
       y1="162.38568"
       x2="-92.7882"
       y2="99.535492" />
  </defs>
  <sodipodi:namedview
     id="base"
     pagecolor="#ffffff"
     bordercolor="#666666"
     borderopacity="1.0"
     inkscape:pageopacity="0.0"
     inkscape:pageshadow="2"
     inkscape:zoom="1.8522883"
     inkscape:cx="-426.96137"
     inkscape:cy="588.54261"
     inkscape:document-units="mm"
     inkscape:current-layer="layer1"
     showgrid="false"
     inkscape:window-width="1920"
     inkscape:window-height="1137"
     inkscape:window-x="-8"
     inkscape:window-y="-8"
     inkscape:window-maximized="1" />
  <metadata
     id="metadata5">
    <rdf:RDF>
      <cc:Work
         rdf:about="">
        <dc:format>image/svg+xml</dc:format>
        <dc:type
           rdf:resource="http://purl.org/dc/dcmitype/StillImage" />
        <dc:title></dc:title>
      </cc:Work>
    </rdf:RDF>
  </metadata>
  <g
     inkscape:label="Layer 1"
     inkscape:groupmode="layer"
     id="layer1">
    <path
       id="path4602"
       style="fill:none;stroke:url(#linearGradient4659);stroke-width:0.265;stroke-linecap:butt;stroke-linejoin:round;stroke-opacity:1;fill-opacity:1;stroke-miterlimit:4;stroke-dasharray:none"
       d="m -130.9855,157.87254 54.1719,7.31714 m -50.24377,0 h 50.24377 l -47.0174,-8.53484 m -41.51267,-52.32012 5.95924,-2.67661 m -1.46456,-3.13112 1.46456,3.13112 3.88865,3.88866 m 9.44389,-1.56556 -13.33254,-2.3231 -17.67572,3.93917 m 43.38126,5.50472 -21.81689,-5.55523 m 4.8987,7.92882 16.91819,-2.37359 -11.31246,-0.60603 m 8.08033,-7.5753 -4.04017,-0.90904 m 6.11075,-0.50502 -2.07058,1.41406 0.65652,3.78765 m -5.95924,-8.080325 2.02008,-0.757531 3.38364,1.313053 m -4.09067,-3.181628 0.70703,1.868575 m 7.01979,8.837856 -3.73715,-3.78765 -3.28264,-5.050206 -6.86827,-2.929118 m 16.21115,10.201414 -2.07058,-1.26255 -0.55552,5.1007 m 2.32309,-14.544587 -1.11105,2.373596 -2.32309,2e-6 m 6.56526,3.232129 -2.82811,5.10071 -1.41406,-8.332839 -7.07028,-6.716771 m 8.28233,17.4232 0.20201,-2.37359 m -9.59539,-2.07059 6.96929,5.90874 -0.20201,2.12109 2.6261,-3.58565 -0.40401,4.59569 m -14.59509,-8.13083 -1.26255,-4.292675 m 17.97872,13.635555 -4.54518,-2.3231 -12.17099,-7.01978 -9.44389,1.56556 m 28.83667,1.96958 -2.67661,5.80774 1.66657,-10.35292 z m 4.79769,-5.35321 -4.79769,5.35321 7.01978,-0.70703 m 4.69669,5.40372 -9.54488,-0.85853 8.63585,-2.12109 m -3.78766,-2.4241 -9.54488,9.03987 m 17.87772,-15.25162 -10.55493,1.56557 2.22209,4.64618 1.11105,-1.21204 m 9.79739,-9.7974 -3.63614,2.272591 -9.49439,4.090669 1.56557,-4.64619 m 8.98936,3.08062 -1.06054,-2.525099 14.847595,1.262552 m -18.332235,9.898397 8.88835,-3.73715 m 4.24217,4.54519 7.676314,0.65652 m -7.676314,-0.65652 12.474009,7.07028 m -24.695499,-4.8987 -0.90903,-2.97962 13.13052,0.80804 -0.30301,2.87861 m -51.20906,-1.46456 9.24187,-0.95954 -10.50443,-4.9492 -9.84789,-1.21205 -11.71648,1.26256 16.21116,-7.070289 13.53455,1.161546 6.86827,3.383633 -1.76757,-4.444175 -4.84819,-3.686649 6.16124,1.060543 4.09067,3.181628 1.96958,2.323093 1.91908,2.3736 -1.66657,-7.070289 -4.74719,-6.716771 8.18133,4.343175 3.13112,5.605725 0.35352,2.92912 7.3733,-5.45422 11.56496,-1.71707 11.211455,3.535143 -13.787055,1.262547 -7.22179,4.99971 11.56496,-0.10101 11.918484,5.20171 4.797694,6.41376 -12.777018,-4.19167 -11.91848,-0.70703 -5.35321,1.31306 m -24.99851,0.30301 11.11045,0.90903 m -16.41317,-1.26255 5.30272,0.35352 4.09066,3.03012 m -11.11045,-0.80803 1.71707,-2.57561 -13.28203,6.46426 m -1.21205,-3.28263 2.07058,0.60603 -0.85853,2.6766 m 11.56496,-3.88865 -11.56496,3.88865 -4.99971,3.08063 5.85824,-5.75723 12.4235,-3.78766 -3.63614,-2.02008 -10.85794,5.20171 -3.78766,6.31276 m 27.67512,-6.11075 -11.11045,-0.80803 m 23.12994,-0.20201 -0.15151,-2.5251 -11.86798,3.53514 -4.44418,1.96958 m 20.90785,-4.19167 -4.44418,1.21205 1.46456,1.06054 m 15.0496,7.97932 -4.09066,-7.37329 m -0.55552,6.91878 1.96958,-1.26255 -0.65653,9.09036 m -16.31216,-2.92912 4.59569,-12.4235 3.53514,1.56557 6.86828,5.95924 1.31305,7.82781 3.33313,-7.3733 -2.6766,-1.71706 -6.26226,-7.07029 4.8482,1.41406 -3.53514,-3.98966 -4.44418,1.11104 3.18162,1.46456 -2.6766,2.4241 m -13.48405,9.34287 2.17159,1.76757 3.23213,-0.30301 0.101,15.10011 m -3.98966,1.46456 -3.93915,-3.08062 m 3.93915,3.08062 5.2185,11.97464 7.1545,-1.2177 -8.38334,-12.2215 -3.98966,1.46456 m 7.01979,-30.04871 -6.36326,13.78705 -0.65653,16.26166 m -14.39308,-21.56437 4.9492,-5.50472 7.07029,-0.45452 9.39338,-2.5251 -1.91908,1.51506 m -14.49409,7.07029 -1.51506,-1.36356 8.53485,-4.69669 -7.01979,6.06025 m 8.32686,29.65271 -2.87263,-11.26997 2.42409,-14.94861 6.61577,-10.50442 -14.49409,7.07029 -6.71677,7.97932 1.71707,-8.08033 3.48464,-1.26255 -5.20171,9.29238 m 25.25678,32.82632 -3.92813,-7.31714 m -36.454,7.31714 h 40.38213 l -29.80196,-14.59509 19.58881,3.49266 6.28502,3.78529 m -51.32686,7.36764 14.87286,-0.0505 10.58017,-14.59509 z" />
  </g>
</svg>
