<?xml version="1.0" encoding="UTF-8" standalone="no"?>
<!-- Created with Inkscape (http://www.inkscape.org/) -->

<svg
   xmlns:dc="http://purl.org/dc/elements/1.1/"
   xmlns:cc="http://creativecommons.org/ns#"
   xmlns:rdf="http://www.w3.org/1999/02/22-rdf-syntax-ns#"
   xmlns:svg="http://www.w3.org/2000/svg"
   xmlns="http://www.w3.org/2000/svg"
   xmlns:xlink="http://www.w3.org/1999/xlink"
   xmlns:sodipodi="http://sodipodi.sourceforge.net/DTD/sodipodi-0.dtd"
   xmlns:inkscape="http://www.inkscape.org/namespaces/inkscape"
   width="210mm"
   height="297mm"
   viewBox="0 0 210 297"
   version="1.1"
   id="svg8"
   inkscape:version="0.92.1 r15371"
   sodipodi:docname="neon_palm.svg"
   inkscape:export-filename="C:\Users\kezen\Documents\Visual Studio 2015\Projects\github\CampLight\src\Applications\MiamiNightsWeb\res\imgs\palm.png"
   inkscape:export-xdpi="600"
   inkscape:export-ydpi="600">
  <defs
     id="defs2">
    <inkscape:path-effect
       effect="spiro"
       id="path-effect5149"
       is_visible="true" />
    <inkscape:path-effect
       effect="spiro"
       id="path-effect5145"
       is_visible="true" />
    <inkscape:path-effect
       effect="spiro"
       id="path-effect5140"
       is_visible="true" />
    <inkscape:path-effect
       effect="spiro"
       id="path-effect5136"
       is_visible="true" />
    <inkscape:path-effect
       effect="spiro"
       id="path-effect5132"
       is_visible="true" />
    <inkscape:path-effect
       effect="spiro"
       id="path-effect5128"
       is_visible="true" />
    <inkscape:path-effect
       effect="spiro"
       id="path-effect5124"
       is_visible="true" />
    <inkscape:path-effect
       effect="spiro"
       id="path-effect5120"
       is_visible="true" />
    <inkscape:path-effect
       effect="spiro"
       id="path-effect5116"
       is_visible="true" />
    <inkscape:path-effect
       effect="bspline"
       id="path-effect5108"
       is_visible="true"
       weight="33.333333"
       steps="2"
       helper_size="0"
       apply_no_weight="true"
       apply_with_weight="true"
       only_selected="false" />
    <inkscape:path-effect
       effect="bspline"
       id="path-effect5104"
       is_visible="true"
       weight="33.333333"
       steps="2"
       helper_size="0"
       apply_no_weight="true"
       apply_with_weight="true"
       only_selected="false" />
    <linearGradient
       inkscape:collect="always"
       id="linearGradient4617">
      <stop
         style="stop-color:#0062ff;stop-opacity:1"
         offset="0"
         id="stop4613" />
      <stop
         id="stop4665"
         offset="0.21379113"
         style="stop-color:#06d7ce;stop-opacity:0.99215686" />
      <stop
         id="stop4663"
         offset="0.47007176"
         style="stop-color:#46ea2b;stop-opacity:0.97209305" />
      <stop
         id="stop4661"
         offset="0.7850489"
         style="stop-color:#ffee18;stop-opacity:0.98039216" />
      <stop
         style="stop-color:#ee4100;stop-opacity:0.97647059"
         offset="1"
         id="stop4615" />
    </linearGradient>
    <linearGradient
       inkscape:collect="always"
       xlink:href="#linearGradient4617"
       id="linearGradient4659"
       gradientUnits="userSpaceOnUse"
       x1="-174.6685"
       y1="162.38568"
       x2="-92.7882"
       y2="99.535492"
       gradientTransform="translate(191.33064,-82.90841)" />
    <linearGradient
       inkscape:collect="always"
       xlink:href="#linearGradient4617"
       id="linearGradient4659-2"
       gradientUnits="userSpaceOnUse"
       x1="-174.6685"
       y1="162.38568"
       x2="-92.7882"
       y2="99.535492"
       gradientTransform="translate(191.33063,-82.90841)" />
    <filter
       inkscape:collect="always"
       style="color-interpolation-filters:sRGB"
       id="filter5484"
       x="-0.0051369074"
       width="1.0102738"
       y="-0.0072116939"
       height="1.0144234">
      <feGaussianBlur
         inkscape:collect="always"
         stdDeviation="0.22580723"
         id="feGaussianBlur5486" />
    </filter>
    <filter
       inkscape:collect="always"
       style="color-interpolation-filters:sRGB;"
       id="filter5484-3"
       x="-0.0051369076"
       width="1.0102738"
       y="-0.007211694"
       height="1.0144234"
       inkscape:label="Blur Double"
       inkscape:menu="Blurs"
       inkscape:menu-tooltip="Overlays two copies with different blur amounts and modifiable blend and composite">
      <feGaussianBlur
         inkscape:collect="always"
         stdDeviation="0.22580723"
         id="feGaussianBlur5486-1"
         result="fbSourceGraphic" />
      <feColorMatrix
         result="fbSourceGraphicAlpha"
         in="fbSourceGraphic"
         values="0 0 0 -1 0 0 0 0 -1 0 0 0 0 -1 0 0 0 0 1 0"
         id="feColorMatrix5535" />
      <feGaussianBlur
         id="feGaussianBlur5537"
         stdDeviation="5"
         result="fbSourceGraphic"
         in="fbSourceGraphic" />
      <feGaussianBlur
         id="feGaussianBlur5539"
         stdDeviation="0.01"
         in="fbSourceGraphic"
         result="result1" />
      <feComposite
         in2="result1"
         id="feComposite5541"
         operator="arithmetic"
         in="fbSourceGraphic"
         k2="0.5"
         k3="0.5"
         result="result2" />
      <feBlend
         in2="fbSourceGraphic"
         id="feBlend5543"
         mode="normal"
         result="result3" />
    </filter>
    <linearGradient
       inkscape:collect="always"
       xlink:href="#linearGradient4617"
       id="linearGradient5533"
       gradientUnits="userSpaceOnUse"
       gradientTransform="translate(191.33064,-82.90841)"
       x1="-174.6685"
       y1="162.38568"
       x2="-92.7882"
       y2="99.535492" />
  </defs>
  <sodipodi:namedview
     id="base"
     pagecolor="#ffffff"
     bordercolor="#666666"
     borderopacity="1.0"
     inkscape:pageopacity="0.0"
     inkscape:pageshadow="2"
     inkscape:zoom="2.6195312"
     inkscape:cx="239.13608"
     inkscape:cy="967.99102"
     inkscape:document-units="mm"
     inkscape:current-layer="layer1"
     showgrid="false"
     inkscape:window-width="1920"
     inkscape:window-height="1137"
     inkscape:window-x="-8"
     inkscape:window-y="-8"
     inkscape:window-maximized="1" />
  <metadata
     id="metadata5">
    <rdf:RDF>
      <cc:Work
         rdf:about="">
        <dc:format>image/svg+xml</dc:format>
        <dc:type
           rdf:resource="http://purl.org/dc/dcmitype/StillImage" />
        <dc:title></dc:title>
      </cc:Work>
    </rdf:RDF>
  </metadata>
  <g
     inkscape:label="Layer 1"
     inkscape:groupmode="layer"
     id="layer1">
    <path
       style="fill:#010918;fill-opacity:1;stroke:none;stroke-width:0.26458332px;stroke-linecap:butt;stroke-linejoin:miter;stroke-opacity:1"
       d="m 9.0182756,82.331766 25.4530304,-14.64559 19.58881,3.49266 -2.87263,-11.26997 2.42409,-14.94861 6.61577,-10.504416 -14.49409,7.070286 -6.71677,7.928821 1.71707,-8.029831 4.9492,-5.50472 4.44418,-1.969577 -11.11045,-0.808029 -11.56496,3.888647 -4.99971,3.03013 3.78766,-6.312757 10.85794,-5.201711 9.24187,-0.959541 -10.50443,-4.9492 -9.84789,-1.212048 -11.71648,1.262559 16.21116,-7.070288 13.53455,1.161545 6.86827,3.383634 -1.76757,-4.444177 -4.84819,-3.686648 6.16124,1.060542 4.09067,3.181628 1.96958,2.323095 1.91908,2.3736 -1.66657,-7.070291 -4.74719,-6.7167702 8.18133,4.3431722 3.13112,5.605727 0.35352,2.92912 7.3733,-5.454218 11.56496,-1.71707 11.21146,3.535143 -13.78706,1.262547 -7.22179,4.999709 11.56496,-0.101009 11.91849,5.201708 4.797694,6.413762 -12.777024,-4.19167 -11.91848,-0.70703 -5.35321,1.313058 3.53514,3.98966 4.09066,7.37329 -3.33313,7.373299 -1.31305,-7.827811 -6.91878,-5.908739 -3.48464,-1.616067 -4.59569,12.423497 0.101,15.100109 8.38334,12.2215 47.017404,8.53484 z"
       id="path5155"
       inkscape:connector-curvature="0" />
    <path
       id="path4602"
       style="fill:none;fill-opacity:1;stroke:url(#linearGradient4659);stroke-width:0.26499999;stroke-linecap:butt;stroke-linejoin:round;stroke-miterlimit:4;stroke-dasharray:none;stroke-opacity:1"
       d="m 60.345136,74.964126 54.171904,7.31714 m -50.243774,0 H 114.51704 L 67.499636,73.746426 M 25.986966,21.42631 31.946206,18.7497 m -1.46456,-3.13112 1.46456,3.13112 3.88865,3.88866 m 9.44389,-1.56556 -13.33254,-2.3231 -17.67572,3.93917 m 43.38126,5.50472 -21.81689,-5.55523 m 4.8987,7.92882 16.91819,-2.37359 -11.31246,-0.60603 m 8.08033,-7.5753 -4.04017,-0.90904 m 6.11075,-0.50502 -2.07058,1.41406 0.65652,3.78765 m -5.95924,-8.080325 2.02008,-0.757531 3.38364,1.313053 m -4.09067,-3.181628 0.70703,1.868575 m 7.01979,8.837856 -3.73715,-3.78765 -3.28264,-5.050206 -6.86827,-2.929118 m 16.21115,10.201414 -2.07058,-1.26255 -0.55552,5.1007 m 2.32309,-14.544587 -1.11105,2.373596 -2.32309,2e-6 m 6.56526,3.232129 -2.82811,5.10071 -1.41406,-8.332839 -7.07028,-6.7167712 m 8.28233,17.4232002 0.20201,-2.37359 m -9.59539,-2.07059 6.96929,5.90874 -0.20201,2.12109 2.6261,-3.58565 -0.40401,4.59569 m -14.59509,-8.13083 -1.26255,-4.292675 m 17.97872,13.635555 -4.54518,-2.3231 -12.17099,-7.01978 -9.44389,1.56556 m 28.83667,1.96958 -2.67661,5.80774 1.66657,-10.35292 z m 4.79769,-5.35321 -4.79769,5.35321 7.01978,-0.70703 m 4.69669,5.40372 -9.54488,-0.85853 8.63585,-2.12109 m -3.78766,-2.4241 -9.54488,9.03987 m 17.87772,-15.25162 -10.55493,1.56557 2.22209,4.64618 1.11105,-1.21204 m 9.79739,-9.7974 -3.63614,2.272591 -9.49439,4.090669 1.56557,-4.64619 m 8.98936,3.08062 -1.06054,-2.525099 14.8476,1.262552 m -18.33224,9.898397 8.88835,-3.73715 m 4.24217,4.54519 7.67632,0.65652 m -7.67632,-0.65652 12.474014,7.07028 m -24.695504,-4.8987 -0.90903,-2.97962 13.13052,0.80804 -0.30301,2.87861 m -51.20906,-1.46456 9.24187,-0.95954 -10.50443,-4.9492 -9.84789,-1.21205 -11.71648,1.26256 16.21116,-7.070289 13.53455,1.161546 6.86827,3.383633 -1.76757,-4.444175 -4.84819,-3.686649 6.16124,1.060543 4.09067,3.181628 1.96958,2.323093 1.91908,2.3736 -1.66657,-7.070289 -4.74719,-6.7167712 8.18133,4.3431752 3.13112,5.605725 0.35352,2.92912 7.3733,-5.45422 11.56496,-1.71707 11.21146,3.535143 -13.78706,1.262547 -7.22179,4.99971 11.56496,-0.10101 11.91849,5.20171 4.797694,6.41376 -12.777024,-4.19167 -11.91848,-0.70703 -5.35321,1.31306 m -24.99851,0.30301 11.11045,0.90903 m -16.41317,-1.26255 5.30272,0.35352 4.09066,3.03012 m -11.11045,-0.80803 1.71707,-2.57561 -13.28203,6.464258 m -1.21205,-3.282628 2.07058,0.60603 -0.85853,2.676598 m 11.56496,-3.888648 -11.56496,3.888648 -4.99971,3.08063 5.85824,-5.757228 12.4235,-3.78766 -3.63614,-2.02008 -10.85794,5.20171 -3.78766,6.312758 m 27.67512,-6.110748 -11.11045,-0.80803 m 23.12994,-0.20201 -0.15151,-2.5251 -11.86798,3.53514 -4.44418,1.969578 m 20.90785,-4.191668 -4.44418,1.21205 1.46456,1.06054 m 15.0496,7.979318 -4.09066,-7.373288 m -0.55552,6.918778 1.96958,-1.26255 -0.65653,9.09036 m -16.31216,-2.92912 4.59569,-12.423498 3.53514,1.565568 6.86828,5.95924 1.31305,7.82781 3.33313,-7.3733 -2.6766,-1.71706 -6.26226,-7.070288 4.8482,1.41406 -3.53514,-3.98966 -4.44418,1.11104 3.18162,1.46456 -2.6766,2.424098 m -13.48405,9.34287 2.17159,1.76757 3.23213,-0.30301 0.101,15.100108 m -3.98966,1.46456 -3.93915,-3.08062 m 3.93915,3.08062 5.2185,11.97464 7.1545,-1.2177 -8.38334,-12.2215 -3.98966,1.46456 m 7.01979,-30.048706 -6.36326,13.787048 -0.65653,16.261658 m -14.39308,-21.564368 4.9492,-5.50472 7.07029,-0.45452 9.39338,-2.525098 -1.91908,1.51506 m -14.49409,7.070288 -1.51506,-1.36356 8.53485,-4.69669 -7.01979,6.06025 m 8.32686,29.652708 -2.87263,-11.26997 2.42409,-14.948608 6.61577,-10.504418 -14.49409,7.070288 -6.71677,7.97932 1.71707,-8.08033 3.48464,-1.26255 -5.20171,9.29238 m 25.25678,32.826318 -3.92813,-7.31714 m -36.454,7.31714 h 40.38213 l -29.80196,-14.59509 19.58881,3.49266 6.28502,3.78529 m -51.3268604,7.36764 14.8728604,-0.0505 10.58017,-14.59509 z"
       inkscape:connector-curvature="0" />
    <path
       id="path4602-9"
       style="opacity:1;fill:none;fill-opacity:1;stroke:url(#linearGradient4659-2);stroke-width:0.26499999;stroke-linecap:butt;stroke-linejoin:round;stroke-miterlimit:4;stroke-dasharray:none;stroke-opacity:1;filter:url(#filter5484)"
       d="m 60.345136,74.964126 54.171894,7.31714 m -50.243764,0 H 114.51703 L 67.499636,73.746426 M 25.986966,21.42631 31.946206,18.7497 m -1.46456,-3.13112 1.46456,3.13112 3.88865,3.88866 m 9.44389,-1.56556 -13.33254,-2.3231 -17.67572,3.93917 m 43.38126,5.50472 -21.81689,-5.55523 m 4.8987,7.92882 16.91819,-2.37359 -11.31246,-0.60603 m 8.08033,-7.5753 -4.04017,-0.90904 m 6.11075,-0.50502 -2.07058,1.41406 0.65652,3.78765 m -5.95924,-8.080325 2.02008,-0.757531 3.38364,1.313053 m -4.09067,-3.181628 0.70703,1.868575 m 7.01979,8.837856 -3.73715,-3.78765 -3.28264,-5.050206 -6.86827,-2.929119 m 16.21115,10.201415 -2.07058,-1.26255 -0.55552,5.1007 m 2.32309,-14.544588 -1.11105,2.373597 -2.32309,10e-7 m 6.56526,3.23213 -2.82811,5.10071 -1.41406,-8.33284 -7.07028,-6.7167712 m 8.28233,17.4232012 0.20201,-2.37359 m -9.59539,-2.07059 6.96929,5.90874 -0.20201,2.12109 2.6261,-3.58565 -0.40401,4.59569 m -14.59509,-8.13083 -1.26255,-4.292676 m 17.97872,13.635556 -4.54518,-2.3231 -12.17099,-7.01978 -9.44389,1.56556 m 28.83667,1.96958 -2.67661,5.80774 1.66657,-10.35292 z m 4.79769,-5.35321 -4.79769,5.35321 7.01978,-0.70703 m 4.69669,5.40372 -9.54488,-0.85853 8.63585,-2.12109 m -3.78766,-2.4241 -9.54488,9.03987 m 17.87772,-15.25162 -10.55493,1.56557 2.22209,4.64618 1.11105,-1.21204 m 9.79739,-9.797401 -3.63614,2.272592 -9.49439,4.090669 1.56557,-4.64619 m 8.98936,3.08062 -1.06054,-2.525099 14.8476,1.262552 m -18.33224,9.898397 8.88835,-3.73715 m 4.24217,4.54519 7.67632,0.65652 m -7.67632,-0.65652 12.474014,7.070279 m -24.695504,-4.898699 -0.90903,-2.97962 13.13052,0.80804 -0.30301,2.87861 m -51.20906,-1.46456 9.24187,-0.95954 -10.50443,-4.9492 -9.84789,-1.21205 -11.71648,1.26256 16.21116,-7.070289 13.53455,1.161546 6.86827,3.383633 -1.76757,-4.444175 -4.84819,-3.68665 6.16124,1.060544 4.09067,3.181628 1.96958,2.323093 1.91908,2.3736 -1.66657,-7.07029 -4.74719,-6.7167712 8.18133,4.3431762 3.13112,5.605725 0.35352,2.92912 7.3733,-5.45422 11.56496,-1.717071 11.21146,3.535144 -13.78706,1.262547 -7.22179,4.99971 11.56496,-0.10101 11.91849,5.20171 4.797694,6.413759 -12.777024,-4.191669 -11.91848,-0.70703 -5.35321,1.31306 m -24.99851,0.30301 11.11045,0.90903 m -16.41317,-1.26255 5.30272,0.35352 4.09066,3.030119 m -11.11045,-0.808029 1.71707,-2.57561 -13.28203,6.464257 m -1.21205,-3.282627 2.07058,0.60603 -0.85853,2.676597 m 11.56496,-3.888647 -11.56496,3.888647 -4.99971,3.080631 5.85824,-5.757228 12.4235,-3.78766 -3.63614,-2.02008 -10.85794,5.20171 -3.78766,6.312757 m 27.67512,-6.110748 -11.11045,-0.808029 m 23.12994,-0.20201 -0.15151,-2.5251 -11.86798,3.535139 -4.44418,1.96958 m 20.90785,-4.191669 -4.44418,1.21205 1.46456,1.06054 m 15.0496,7.979317 -4.09066,-7.373286 m -0.55552,6.918777 1.96958,-1.262549 -0.65653,9.090358 m -16.31216,-2.92912 4.59569,-12.423497 3.53514,1.565569 6.86828,5.959239 1.31305,7.827809 3.33313,-7.3733 -2.6766,-1.717058 -6.26226,-7.070289 4.8482,1.414061 -3.53514,-3.989661 -4.44418,1.11104 3.18162,1.46456 -2.6766,2.424097 m -13.48405,9.342872 2.17159,1.76757 3.23213,-0.303012 0.101,15.100109 m -3.98966,1.46456 -3.93915,-3.08062 m 3.93915,3.08062 5.2185,11.97464 7.1545,-1.2177 -8.38334,-12.2215 -3.98966,1.46456 m 7.01979,-30.048706 -6.36326,13.787049 -0.65653,16.261657 m -14.39308,-21.564368 4.9492,-5.504719 7.07029,-0.45452 9.39338,-2.525099 -1.91908,1.51506 m -14.49409,7.070288 -1.51506,-1.363559 8.53485,-4.69669 -7.01979,6.060249 m 8.32686,29.652708 -2.87263,-11.26997 2.42409,-14.948607 6.61577,-10.504419 -14.49409,7.070288 -6.71677,7.97932 1.71707,-8.08033 3.48464,-1.262549 -5.20171,9.292378 m 25.25678,32.826319 -3.92813,-7.31714 m -36.454,7.31714 h 40.38213 l -29.80196,-14.59509 19.58881,3.49266 6.28502,3.78529 m -51.3268604,7.36764 14.8728604,-0.0505 10.58017,-14.59509 z"
       inkscape:connector-curvature="0" />
    <path
       id="path4602-9-4"
       style="opacity:1;fill:none;fill-opacity:1;stroke:url(#linearGradient5533);stroke-width:0.26499999;stroke-linecap:butt;stroke-linejoin:round;stroke-miterlimit:4;stroke-dasharray:none;stroke-opacity:1;filter:url(#filter5484-3)"
       d="m 60.345136,74.964126 54.171904,7.31714 m -50.243774,0 h 50.243774 l -47.017404,-8.53484 m -41.51267,-52.320115 5.95924,-2.67661 m -1.46456,-3.13112 1.46456,3.13112 3.88865,3.88866 m 9.44389,-1.56556 -13.33254,-2.3231 -17.67572,3.93917 m 43.38126,5.50472 -21.81689,-5.55523 m 4.8987,7.92882 16.91819,-2.37359 -11.31246,-0.60603 m 8.08033,-7.5753 -4.04017,-0.90904 m 6.11075,-0.50502 -2.07058,1.41406 0.65652,3.78765 m -5.95924,-8.080325 2.02008,-0.757531 3.38364,1.313053 m -4.09067,-3.181628 0.70703,1.868575 m 7.01979,8.837856 -3.73715,-3.78765 -3.28264,-5.050206 -6.86827,-2.929119 m 16.21115,10.201415 -2.07058,-1.26255 -0.55552,5.1007 m 2.32309,-14.544588 -1.11105,2.373597 -2.32309,10e-7 m 6.56526,3.23213 -2.82811,5.10071 -1.41406,-8.33284 -7.07028,-6.7167712 m 8.28233,17.4232012 0.20201,-2.37359 m -9.59539,-2.07059 6.96929,5.90874 -0.20201,2.12109 2.6261,-3.58565 -0.40401,4.59569 m -14.59509,-8.13083 -1.26255,-4.292676 m 17.97872,13.635556 -4.54518,-2.3231 -12.17099,-7.01978 -9.44389,1.56556 m 28.83667,1.96958 -2.67661,5.80774 1.66657,-10.35292 z m 4.79769,-5.35321 -4.79769,5.35321 7.01978,-0.70703 m 4.69669,5.40372 -9.54488,-0.85853 8.63585,-2.12109 m -3.78766,-2.4241 -9.54488,9.03987 m 17.87772,-15.25162 -10.55493,1.56557 2.22209,4.64618 1.11105,-1.21204 m 9.79739,-9.797401 -3.63614,2.272592 -9.49439,4.090669 1.56557,-4.64619 m 8.98936,3.08062 -1.06054,-2.525099 14.8476,1.262552 m -18.33224,9.898397 8.88835,-3.73715 m 4.24217,4.54519 7.67632,0.65652 m -7.67632,-0.65652 12.474014,7.07028 m -24.695504,-4.8987 -0.90903,-2.97962 13.13052,0.80804 -0.30301,2.87861 m -51.20906,-1.46456 9.24187,-0.95954 -10.50443,-4.9492 -9.84789,-1.21205 -11.71648,1.26256 16.21116,-7.070289 13.53455,1.161546 6.86827,3.383633 -1.76757,-4.444175 -4.84819,-3.68665 6.16124,1.060544 4.09067,3.181628 1.96958,2.323093 1.91908,2.3736 -1.66657,-7.07029 -4.74719,-6.7167712 8.18133,4.3431762 3.13112,5.605725 0.35352,2.92912 7.3733,-5.45422 11.56496,-1.717071 11.21146,3.535144 -13.78706,1.262547 -7.22179,4.99971 11.56496,-0.10101 11.91849,5.20171 4.797694,6.41376 -12.777024,-4.19167 -11.91848,-0.70703 -5.35321,1.31306 m -24.99851,0.30301 11.11045,0.90903 m -16.41317,-1.26255 5.30272,0.35352 4.09066,3.03012 m -11.11045,-0.808029 1.71707,-2.575611 -13.28203,6.464258 m -1.21205,-3.282627 2.07058,0.60603 -0.85853,2.676597 m 11.56496,-3.888647 -11.56496,3.888647 -4.99971,3.080631 5.85824,-5.757228 12.4235,-3.787661 -3.63614,-2.02008 -10.85794,5.201711 -3.78766,6.312757 m 27.67512,-6.110748 -11.11045,-0.808029 m 23.12994,-0.202011 -0.15151,-2.5251 -11.86798,3.53514 -4.44418,1.96958 m 20.90785,-4.19167 -4.44418,1.21205 1.46456,1.060541 m 15.0496,7.979317 -4.09066,-7.373286 m -0.55552,6.918777 1.96958,-1.262549 -0.65653,9.090358 m -16.31216,-2.92912 4.59569,-12.423497 3.53514,1.565569 6.86828,5.959239 1.31305,7.827809 3.33313,-7.3733 -2.6766,-1.717058 -6.26226,-7.070289 4.8482,1.414061 -3.53514,-3.989662 -4.44418,1.11104 3.18162,1.464561 -2.6766,2.424097 m -13.48405,9.342872 2.17159,1.76757 3.23213,-0.303012 0.101,15.100107 m -3.98966,1.46456 -3.93915,-3.08062 m 3.93915,3.08062 5.2185,11.97464 7.1545,-1.2177 -8.38334,-12.2215 -3.98966,1.46456 m 7.01979,-30.048705 -6.36326,13.78705 -0.65653,16.261655 m -14.39308,-21.564366 4.9492,-5.504719 7.07029,-0.45452 9.39338,-2.5251 -1.91908,1.515061 m -14.49409,7.070288 -1.51506,-1.363559 8.53485,-4.69669 -7.01979,6.060249 m 8.32686,29.652706 -2.87263,-11.26997 2.42409,-14.948605 6.61577,-10.504419 -14.49409,7.070288 -6.71677,7.97932 1.71707,-8.08033 3.48464,-1.262549 -5.20171,9.292378 m 25.25678,32.826317 -3.92813,-7.31714 m -36.454,7.31714 h 40.38213 l -29.80196,-14.59509 19.58881,3.49266 6.28502,3.78529 m -51.3268604,7.36764 14.8728604,-0.0505 10.58017,-14.59509 z"
       inkscape:connector-curvature="0" />
  </g>
</svg>
